
<?xml version="1.0" encoding="utf-8"?>

<!DOCTYPE svg PUBLIC "-//W3C//DTD SVG 1.1//EN" "http://www.w3.org/Graphics/SVG/1.1/DTD/svg11.dtd">
<svg width="956px" height="462px" viewBox="0 0 956 462" version="1.1" xmlns="http://www.w3.org/2000/svg" xmlns:xlink="http://www.w3.org/1999/xlink">
<style>
border: 3px solid rgba(226,225,231,0.50);
</style>
                <g id="Page-1" stroke="none" stroke-width="1" fill="none" fill-rule="evenodd" stroke-opacity="0.5">
                    <g id="landing-page-1" transform="translate(-238.000000, -1980.000000)" stroke="#E2E1E7" stroke-width="3">
                        <g id="section-5" transform="translate(155.000000, 1980.000000)">
                            <path d="M1003,1.5 C1012.52691,1.5 1021.15191,5.36154403 1027.39518,11.604816 C1033.63846,17.8480881 1037.5,26.4730881 1037.5,36 L1037.5,99.5 L993,99.5 C982.756876,99.5 973.472973,103.606872 966.705023,110.263793 C959.924133,116.933442 955.669035,126.162965 955.504921,136.3865 L955.5,136.993924 L955.5,329 C955.5,339.355339 959.69733,348.730339 966.483496,355.516504 C973.269661,362.30267 982.644661,366.5 993,366.5 L1037.5,366.5 L1037.5,426 C1037.5,435.526912 1033.63846,444.151912 1027.39518,450.395184 C1021.15191,456.638456 1012.52691,460.5 1003,460.5 L119,460.5 C109.473088,460.5 100.848088,456.638456 94.604816,450.395184 C88.361544,444.151912 84.5,435.526912 84.5,426 L84.5,366.5 L133,366.5 C143.243124,366.5 152.527027,362.393128 159.294977,355.736207 C166.075867,349.066558 170.330965,339.837035 170.495079,329.6135 L170.5,329.006076 L170.5,137 C170.5,126.644661 166.30267,117.269661 159.516504,110.483496 C152.730339,103.69733 143.355339,99.5 133,99.5 L84.5,99.5 L84.5,36 C84.5,26.4730881 88.361544,17.8480881 94.604816,11.604816 C100.848088,5.36154403 109.473088,1.5 119,1.5 Z" id="Combined-Shape"></path>
                        </g>
                    </g>
                </g>
            </svg>
